<svg width="742" height="1031" viewBox="0 0 742 1031" fill="none" xmlns="http://www.w3.org/2000/svg">
<path d="M256.178 826.74L255.967 842.596H212.514V838.693H213.216C215.607 838.693 217.159 838.255 217.875 837.375C218.591 836.496 218.947 834.989 218.947 832.857V804.661C218.947 802.483 218.572 800.965 217.822 800.108C217.072 799.255 215.538 798.825 213.216 798.825H212.514V794.924H238.072V798.825H237.123C234.732 798.825 233.18 799.265 232.466 800.145C231.75 801.023 231.392 802.529 231.392 804.661V831.873C231.392 833.912 231.51 835.26 231.744 835.916C231.979 836.572 232.594 837.141 233.591 837.621C234.587 838.101 236.326 838.341 238.811 838.341C242.983 838.341 246.099 837.293 248.162 835.195C250.224 833.099 251.631 830.279 252.38 826.74H256.178Z" fill="#F7F0D3"/>
<path d="M256.144 819.181V814.997C258.23 814.997 260.252 814.295 262.21 812.888C264.166 811.483 265.144 809.771 265.144 807.756C265.144 806.607 264.675 806.033 263.738 806.033C263.527 806.033 263.106 806.103 262.472 806.244C261.816 806.384 261.3 806.455 260.926 806.455C259.614 806.455 258.39 805.933 257.252 804.889C256.115 803.848 255.547 802.412 255.547 800.584C255.547 798.756 256.139 797.215 257.323 795.96C258.506 794.708 260.116 794.08 262.156 794.08C264.57 794.08 266.534 795 268.046 796.84C269.558 798.68 270.312 801.24 270.312 804.521C270.312 809.044 268.93 812.591 266.164 815.155C263.398 817.723 260.059 819.064 256.144 819.181Z" fill="#F7F0D3"/>
<path d="M288.066 825.686H299.633L293.691 811.447L288.066 825.686ZM286.554 829.728L285.641 832.084C284.983 833.748 284.655 834.92 284.655 835.6C284.655 836.748 285.042 837.551 285.817 838.007C286.59 838.466 287.855 838.694 289.613 838.694V842.596H273.863V838.694C276.863 838.694 279.382 836.139 281.422 831.03L296.082 794.08H300.195L315.137 830.994C316.613 834.651 317.949 836.848 319.145 837.586C320.339 838.324 321.487 838.694 322.59 838.694V842.596H298.929V838.694C301.062 838.694 302.386 838.49 302.902 838.078C303.418 837.668 303.675 837.147 303.675 836.514C303.675 835.951 303.465 835.214 303.042 834.299L302.586 833.21L301.214 829.728H286.554Z" fill="#F7F0D3"/>
<path d="M334.05 808.494V830.397C334.05 833.911 334.689 836.174 335.966 837.182C337.245 838.189 338.878 838.693 340.87 838.693V842.595H322.976V838.693C324.5 838.693 325.824 838.325 326.949 837.585C328.074 836.849 328.789 835.993 329.093 835.021C329.398 834.047 329.55 832.518 329.55 830.431V806.103C329.55 801.251 327.277 798.826 322.73 798.826V794.923H338.832L364.953 824.103V806.631C364.953 801.427 362.761 798.826 358.378 798.826V794.923H375.5V798.826C374.304 798.826 373.185 799.154 372.142 799.81C371.1 800.466 370.39 801.303 370.016 802.325C369.64 803.343 369.453 804.826 369.453 806.771V843.369H364.953L334.05 808.494Z" fill="#F7F0D3"/>
<path d="M396.734 799.177H392.726C390.335 799.177 388.578 799.435 387.452 799.951C386.327 800.467 385.383 801.492 384.622 803.028C383.86 804.563 383.398 806.384 383.234 808.493H379.262V794.924H426.968V808.493H422.995C422.246 804.837 421.191 802.372 419.831 801.093C418.472 799.816 416.304 799.177 413.327 799.177H409.214V832.857C409.214 835.037 409.583 836.555 410.322 837.411C411.059 838.265 412.612 838.693 414.98 838.693H416.21V842.595H389.878V838.693H391.003C393.394 838.693 394.946 838.255 395.66 837.373C396.375 836.496 396.734 834.989 396.734 832.857V799.177Z" fill="#F7F0D3"/>
<path d="M449.608 817.283C453.569 817.33 456.241 817.09 457.624 816.562C459.006 816.035 460.096 815.086 460.893 813.715C461.69 812.343 462.088 810.486 462.088 808.143C462.088 804.791 461.298 802.471 459.714 801.182C458.134 799.892 455.409 799.248 451.541 799.248C451.049 799.248 450.405 799.259 449.608 799.283V817.283ZM449.608 821.572V832.858C449.608 835.036 449.982 836.555 450.733 837.411C451.482 838.266 453.018 838.694 455.338 838.694H456.182V842.595H430.482V838.694H431.432C433.822 838.694 435.374 838.255 436.089 837.374C436.804 836.496 437.162 834.99 437.162 832.858V804.662C437.162 802.482 436.788 800.966 436.037 800.108C435.288 799.255 433.752 798.826 431.432 798.826H430.482V794.923L449.608 794.888L453.897 794.854C458.138 794.854 461.238 794.994 463.196 795.275C465.152 795.556 467.08 796.231 468.978 797.296C470.877 798.364 472.37 799.822 473.462 801.674C474.55 803.526 475.096 805.518 475.096 807.65C475.096 813.322 471.885 817.2 465.464 819.287C467.174 820.366 469.834 823.74 473.444 829.412C476.256 833.795 478.26 836.438 479.456 837.34C480.65 838.243 481.964 838.694 483.393 838.694V842.595H468.486C467.128 840.978 464.608 836.876 460.928 830.291C459.077 826.963 457.776 824.818 457.025 823.858C456.276 822.896 455.508 822.282 454.722 822.012C453.937 821.743 452.233 821.595 449.608 821.572Z" fill="#F7F0D3"/>
<path d="M503.748 819.814V831.592C503.748 833.842 503.877 835.313 504.135 836.005C504.392 836.696 505.084 837.27 506.209 837.726C507.333 838.184 509.045 838.412 511.341 838.412C514.459 838.412 516.749 838.025 518.215 837.252C519.679 836.478 520.993 835.12 522.152 833.174C523.313 831.229 524.151 829.154 524.665 826.952H528.604L528.287 842.596H484.693V838.693H485.572C487.94 838.693 489.48 838.254 490.196 837.374C490.909 836.497 491.268 834.99 491.268 832.857V804.592C491.268 802.412 490.899 800.896 490.16 800.038C489.423 799.184 487.892 798.756 485.572 798.756H484.693V794.924H525.299L526.001 807.264H522.064C521.361 805.108 520.576 803.392 519.709 802.114C518.841 800.837 517.969 800.016 517.089 799.653C516.212 799.289 514.728 799.108 512.643 799.108H503.748V815.561H508.177C510.287 815.561 511.687 815.162 512.379 814.365C513.069 813.568 513.463 811.998 513.556 809.654H517.529V825.826H513.556C513.58 825.521 513.592 825.298 513.592 825.158C513.592 823.798 513.304 822.568 512.729 821.466C512.156 820.365 510.685 819.814 508.319 819.814H503.748Z" fill="#F7F0D3"/>
<path d="M128.053 902.946V920.84H124.15C123.705 918.942 123.037 917.418 122.146 916.27C118.186 920.254 112.96 922.247 106.468 922.247C99.0835 922.247 93.1782 919.832 88.7475 915.004C84.3182 910.176 82.1035 904.446 82.1035 897.812C82.1035 891.274 84.2955 885.462 88.6782 880.375C93.0609 875.29 99.1195 872.747 106.854 872.747C112.642 872.747 117.553 874.656 121.584 878.476C122.124 877.282 122.616 875.863 123.061 874.223H126.928L127.42 891.836H123.553C122.405 887.055 120.525 883.44 117.912 880.991C115.297 878.542 112.197 877.316 108.612 877.316C104.486 877.316 101.381 878.934 99.2955 882.168C97.2088 885.403 96.1662 890.454 96.1662 897.32C96.1662 902.148 96.5409 905.975 97.2915 908.799C98.0409 911.624 99.5248 913.798 101.74 915.32C103.954 916.844 106.373 917.606 108.998 917.606C112.468 917.606 115.561 916.399 118.28 913.984C120.998 911.571 122.956 907.891 124.15 902.946H128.053Z" fill="#F7F0D3"/>
<path d="M150.798 896.899C150.798 904.235 151.782 909.527 153.752 912.772C155.72 916.019 158.65 917.641 162.541 917.641C166.596 917.641 169.654 916.159 171.716 913.195C173.778 910.229 174.81 905.032 174.81 897.601C174.81 890.805 173.844 885.731 171.91 882.379C169.977 879.028 166.9 877.352 162.681 877.352C158.697 877.352 155.72 878.911 153.752 882.028C151.782 885.145 150.798 890.101 150.798 896.899ZM136.104 897.285C136.104 892.996 137.298 888.813 139.689 884.735C142.08 880.656 145.32 877.64 149.41 875.681C153.5 873.725 157.877 872.747 162.541 872.747C170.932 872.747 177.512 875.167 182.281 880.007C187.049 884.847 189.436 890.781 189.436 897.813C189.436 904.492 187.056 910.235 182.298 915.039C177.541 919.844 171.072 922.247 162.892 922.247C157.29 922.247 152.34 921.063 148.04 918.696C143.737 916.328 140.673 913.148 138.845 909.149C137.017 905.155 136.104 901.2 136.104 897.285Z" fill="#F7F0D3"/>
<path d="M205.748 887.16V909.063C205.748 912.578 206.386 914.84 207.664 915.848C208.942 916.855 210.576 917.359 212.568 917.359V921.262H194.673V917.359C196.197 917.359 197.521 916.991 198.646 916.251C199.772 915.515 200.486 914.659 200.79 913.687C201.096 912.714 201.248 911.184 201.248 909.098V884.77C201.248 879.918 198.974 877.492 194.428 877.492V873.59H210.529L236.65 902.77V885.298C236.65 880.094 234.458 877.492 230.076 877.492V873.59H247.197V877.492C246.001 877.492 244.882 877.82 243.84 878.476C242.797 879.132 242.088 879.97 241.713 880.991C241.337 882.01 241.15 883.492 241.15 885.438V922.035H236.65L205.748 887.16Z" fill="#F7F0D3"/>
<path d="M261.998 887.16V909.063C261.998 912.578 262.636 914.84 263.914 915.848C265.192 916.855 266.826 917.359 268.818 917.359V921.262H250.923V917.359C252.447 917.359 253.771 916.991 254.896 916.251C256.022 915.515 256.736 914.659 257.04 913.687C257.346 912.714 257.498 911.184 257.498 909.098V884.77C257.498 879.918 255.224 877.492 250.678 877.492V873.59H266.779L292.9 902.77V885.298C292.9 880.094 290.708 877.492 286.326 877.492V873.59H303.447V877.492C302.251 877.492 301.132 877.82 300.09 878.476C299.047 879.132 298.338 879.97 297.963 880.991C297.587 882.01 297.4 883.492 297.4 885.438V922.035H292.9L261.998 887.16Z" fill="#F7F0D3"/>
<path d="M315.998 904.352H327.564L321.623 890.113L315.998 904.352ZM314.486 908.395L313.572 910.751C312.915 912.415 312.587 913.587 312.587 914.267C312.587 915.415 312.974 916.217 313.748 916.673C314.522 917.132 315.787 917.36 317.544 917.36V921.263H301.795V917.36C304.795 917.36 307.314 914.805 309.354 909.696L324.014 872.747H328.127L343.068 909.66C344.544 913.317 345.88 915.515 347.076 916.252C348.271 916.991 349.419 917.36 350.522 917.36V921.263H326.86V917.36C328.994 917.36 330.318 917.156 330.834 916.744C331.35 916.335 331.607 915.813 331.607 915.18C331.607 914.617 331.396 913.88 330.974 912.965L330.518 911.876L329.146 908.395H314.486Z" fill="#F7F0D3"/>
<path d="M350.908 877.492V873.59H376.115V877.492H375.378C373.01 877.492 371.47 877.931 370.755 878.811C370.039 879.688 369.682 881.195 369.682 883.328V911.523C369.682 913.703 370.051 915.222 370.79 916.076C371.528 916.932 373.056 917.359 375.378 917.359H376.115V921.262H350.908V917.359C353.439 917.359 355.122 916.972 355.954 916.199C356.784 915.426 357.202 913.867 357.202 911.523V883.328C357.202 881.055 356.81 879.515 356.024 878.704C355.238 877.898 353.534 877.492 350.908 877.492Z" fill="#F7F0D3"/>
<path d="M382.232 920.453V904.141H386.451C387.623 909.016 389.38 912.496 391.724 914.583C394.068 916.668 396.599 917.711 399.317 917.711C401.333 917.711 402.939 917.113 404.135 915.919C405.329 914.723 405.927 913.316 405.927 911.7C405.927 910.551 405.552 909.403 404.803 908.255C404.052 907.105 402.271 905.828 399.459 904.423C394.044 901.727 390.388 899.753 388.489 898.499C386.592 897.245 385.068 895.633 383.92 893.664C382.771 891.696 382.197 889.433 382.197 886.879C382.197 882.777 383.667 879.397 386.608 876.736C389.549 874.077 392.955 872.747 396.821 872.747C400.876 872.747 404.321 874.105 407.157 876.824C407.627 876.121 408.013 875.043 408.317 873.591H412.361V887.652H408.424C407.72 884.536 406.384 881.969 404.416 879.953C402.447 877.937 400.232 876.929 397.771 876.929C395.92 876.929 394.449 877.445 393.359 878.477C392.269 879.508 391.724 880.797 391.724 882.344C391.724 883.539 392.076 884.648 392.779 885.665C393.483 886.687 394.431 887.531 395.627 888.197C396.821 888.867 399.353 890.101 403.22 891.907C406.689 893.547 409.256 895.012 410.92 896.301C412.584 897.591 413.901 899.213 414.873 901.171C415.847 903.128 416.333 905.243 416.333 907.516C416.333 911.735 414.775 915.245 411.657 918.045C408.54 920.847 404.825 922.247 400.513 922.247C398.052 922.247 395.645 921.731 393.288 920.7C390.933 919.668 389.052 918.297 387.647 916.587C387.107 917.641 386.708 918.929 386.451 920.453H382.232Z" fill="#F7F0D3"/>
<path d="M422.732 920.453V904.141H426.951C428.123 909.016 429.88 912.496 432.224 914.583C434.568 916.668 437.099 917.711 439.817 917.711C441.833 917.711 443.439 917.113 444.635 915.919C445.829 914.723 446.427 913.316 446.427 911.7C446.427 910.551 446.052 909.403 445.303 908.255C444.552 907.105 442.771 905.828 439.959 904.423C434.544 901.727 430.888 899.753 428.989 898.499C427.092 897.245 425.568 895.633 424.42 893.664C423.271 891.696 422.697 889.433 422.697 886.879C422.697 882.777 424.167 879.397 427.108 876.736C430.049 874.077 433.455 872.747 437.321 872.747C441.376 872.747 444.821 874.105 447.657 876.824C448.127 876.121 448.513 875.043 448.817 873.591H452.861V887.652H448.924C448.22 884.536 446.884 881.969 444.916 879.953C442.947 877.937 440.732 876.929 438.271 876.929C436.42 876.929 434.949 877.445 433.859 878.477C432.769 879.508 432.224 880.797 432.224 882.344C432.224 883.539 432.576 884.648 433.279 885.665C433.983 886.687 434.931 887.531 436.127 888.197C437.321 888.867 439.853 890.101 443.72 891.907C447.189 893.547 449.756 895.012 451.42 896.301C453.084 897.591 454.401 899.213 455.373 901.171C456.347 903.128 456.833 905.243 456.833 907.516C456.833 911.735 455.275 915.245 452.157 918.045C449.04 920.847 445.325 922.247 441.013 922.247C438.552 922.247 436.145 921.731 433.788 920.7C431.433 919.668 429.552 918.297 428.147 916.587C427.607 917.641 427.208 918.929 426.951 920.453H422.732Z" fill="#F7F0D3"/>
<path d="M471.986 904.352H483.553L477.611 890.113L471.986 904.352ZM470.474 908.395L469.561 910.751C468.903 912.415 468.575 913.587 468.575 914.267C468.575 915.415 468.962 916.217 469.737 916.673C470.51 917.132 471.775 917.36 473.533 917.36V921.263H457.783V917.36C460.783 917.36 463.302 914.805 465.342 909.696L480.002 872.747H484.115L499.057 909.66C500.533 913.317 501.869 915.515 503.065 916.252C504.259 916.991 505.407 917.36 506.51 917.36V921.263H482.849V917.36C484.982 917.36 486.306 917.156 486.822 916.744C487.338 916.335 487.595 915.813 487.595 915.18C487.595 914.617 487.385 913.88 486.962 912.965L486.506 911.876L485.134 908.395H470.474Z" fill="#F7F0D3"/>
<path d="M517.97 887.16V909.063C517.97 912.578 518.609 914.84 519.886 915.848C521.164 916.855 522.798 917.359 524.79 917.359V921.262H506.896V917.359C508.42 917.359 509.744 916.991 510.869 916.251C511.994 915.515 512.709 914.659 513.013 913.687C513.318 912.714 513.47 911.184 513.47 909.098V884.77C513.47 879.918 511.197 877.492 506.65 877.492V873.59H522.752L548.873 902.77V885.298C548.873 880.094 546.681 877.492 542.298 877.492V873.59H559.42V877.492C558.224 877.492 557.105 877.82 556.062 878.476C555.018 879.132 554.31 879.97 553.936 880.991C553.56 882.01 553.373 883.492 553.373 885.438V922.035H548.873L517.97 887.16Z" fill="#F7F0D3"/>
<path d="M610.537 902.946V920.84H606.635C606.189 918.942 605.521 917.418 604.631 916.27C600.671 920.254 595.444 922.247 588.952 922.247C581.568 922.247 575.663 919.832 571.232 915.004C566.803 910.176 564.588 904.446 564.588 897.812C564.588 891.274 566.78 885.462 571.163 880.375C575.545 875.29 581.604 872.747 589.339 872.747C595.127 872.747 600.037 874.656 604.068 878.476C604.608 877.282 605.1 875.863 605.545 874.223H609.412L609.904 891.836H606.037C604.889 887.055 603.008 883.44 600.395 880.991C597.781 878.542 594.681 877.316 591.096 877.316C586.971 877.316 583.865 878.934 581.78 882.168C579.693 885.403 578.651 890.454 578.651 897.32C578.651 902.148 579.025 905.975 579.776 908.799C580.525 911.624 582.009 913.798 584.223 915.32C586.439 916.844 588.857 917.606 591.483 917.606C594.952 917.606 598.045 916.399 600.764 913.984C603.483 911.571 605.44 907.891 606.635 902.946H610.537Z" fill="#F7F0D3"/>
<path d="M635.92 898.481V910.258C635.92 912.509 636.049 913.98 636.307 914.672C636.564 915.362 637.256 915.937 638.381 916.393C639.505 916.85 641.217 917.078 643.513 917.078C646.631 917.078 648.921 916.692 650.387 915.918C651.851 915.145 653.165 913.786 654.324 911.841C655.485 909.896 656.323 907.821 656.837 905.618H660.776L660.459 921.262H616.865V917.36H617.744C620.112 917.36 621.652 916.921 622.368 916.041C623.081 915.164 623.44 913.657 623.44 911.524V883.258C623.44 881.078 623.071 879.562 622.332 878.705C621.595 877.85 620.064 877.422 617.744 877.422H616.865V873.59H657.471L658.173 885.93H654.236C653.533 883.774 652.748 882.058 651.881 880.781C651.013 879.504 650.141 878.682 649.261 878.32C648.384 877.956 646.9 877.774 644.815 877.774H635.92V894.228H640.349C642.459 894.228 643.859 893.829 644.551 893.032C645.241 892.234 645.635 890.665 645.728 888.321H649.701V904.493H645.728C645.752 904.188 645.764 903.965 645.764 903.825C645.764 902.465 645.476 901.234 644.901 900.133C644.328 899.032 642.857 898.481 640.491 898.481H635.92Z" fill="#F7F0D3"/>
<mask id="mask0_224_791" style="mask-type:luminance" maskUnits="userSpaceOnUse" x="60" y="109" width="622" height="461">
<mask id="mask1_224_791" style="mask-type:luminance" maskUnits="userSpaceOnUse" x="60" y="109" width="622" height="461">
<path d="M60.9473 109.595H681.379V569.183H60.9473V109.595Z" fill="white"/>
</mask>
<g mask="url(#mask1_224_791)">
<path d="M60.9453 109.594H681.377V569.181H60.9453V109.594Z" fill="black"/>
<mask id="mask2_224_791" style="mask-type:luminance" maskUnits="userSpaceOnUse" x="60" y="109" width="622" height="461">
<path d="M60.9453 109.595H681.379V569.183H60.9453V109.595Z" fill="white"/>
</mask>
<g mask="url(#mask2_224_791)">
<path d="M1061.92 1545.96H-319.918V77.5161H1061.92V1545.96Z" fill="white"/>
<path d="M371 581.51C308.886 581.51 258.625 532.408 258.625 471.73C258.625 411.05 308.886 361.948 371 361.948C433.112 361.948 483.373 411.05 483.373 471.73C483.373 532.408 433.112 581.51 371 581.51Z" fill="black"/>
</g>
</g>
</mask>
<g mask="url(#mask0_224_791)">
<mask id="mask3_224_791" style="mask-type:luminance" maskUnits="userSpaceOnUse" x="60" y="109" width="622" height="461">
<path d="M60.9473 109.595H681.379V569.183H60.9473V109.595Z" fill="white"/>
</mask>
<g mask="url(#mask3_224_791)">
<path d="M605.881 546.285C618.418 537.738 635.57 538.357 646.894 548.497C650.985 552.129 654.421 556.935 656.41 562.323C651.681 565.578 646.096 567.526 640.662 568.131C625.565 569.886 611.192 560.497 605.881 546.285Z" fill="#C9A32B"/>
<path d="M605.881 471.729C624.9 445.624 660.205 444.57 680.201 470.149C680.51 470.525 681.109 471.321 681.38 471.729C681.109 472.15 680.513 472.924 680.201 473.309C660.197 498.896 624.89 497.826 605.881 471.729Z" fill="#66F1E2"/>
<path d="M597.346 399.882C603.57 385.081 618.975 375.794 634.87 377.165C640.58 377.659 646.471 379.457 651.532 382.682C649.262 388.233 645.482 393.103 641.103 396.799C628.911 407.086 610.964 408.385 597.346 399.882Z" fill="#C9A32B"/>
<path d="M563.531 335.076C565.71 310.329 584.037 289.384 608.097 283.904C616.749 281.948 626.261 281.79 635.249 284.172C634.535 293.437 631.245 302.374 626.542 309.892C613.434 330.796 587.607 341.186 563.531 335.076Z" fill="#66F1E2"/>
<path d="M512.006 282.13C509.298 264.5 518.035 246.86 532.64 237.124C537.891 233.686 544.054 231.108 550.539 230.317C551.65 236.752 550.952 243.402 549.171 249.417C544.051 266.206 529.667 279.653 512.006 282.13Z" fill="#C9A32B"/>
<path d="M449.899 234.51C437.268 210.776 441.111 181.246 457.696 160.576C463.692 153.217 471.42 146.696 480.456 142.636C485.26 151.292 487.544 161.153 487.936 170.633C488.84 197.117 474.227 223.072 449.899 234.51Z" fill="#66F1E2"/>
<path d="M371 191.932C357.587 174.52 355.111 150.963 360.699 130.18C362.819 122.897 366.038 115.639 371 109.595C375.963 115.635 379.183 122.9 381.3 130.18C386.89 150.96 384.412 174.523 371 191.932Z" fill="#C9A32B"/>
<path d="M292.103 234.51C267.276 223.133 252.124 197.028 252.292 170.139C252.435 160.517 254.44 150.479 259.039 141.561C268.232 145.565 276.135 152.09 282.319 159.459C299.43 180.197 304.168 210.014 292.103 234.51Z" fill="#66F1E2"/>
<path d="M229.995 282.13C212.331 279.652 197.951 266.208 192.83 249.417C191.049 243.4 190.353 236.756 191.462 230.317C197.943 231.105 204.113 233.686 209.361 237.124C223.966 246.857 232.705 264.502 229.995 282.13Z" fill="#C9A32B"/>
<path d="M178.781 335.296C154.602 341.366 128.726 330.893 115.538 309.948C110.81 302.41 107.494 293.466 106.754 284.173C115.765 281.802 125.313 281.984 133.983 283.96C158.106 289.496 176.535 310.47 178.781 335.296Z" fill="#66F1E2"/>
<path d="M144.655 399.882C130.501 408.349 112.17 406.736 99.5434 396.37C95.0208 392.637 91.0781 387.742 88.6621 382.109C93.8808 378.9 99.9314 377.174 105.777 376.734C122.067 375.548 137.978 384.804 144.655 399.882Z" fill="#C9A32B"/>
<path d="M136.503 471.729C117.47 497.836 82.1379 498.888 62.1273 473.309C61.8179 472.933 61.2179 472.137 60.9473 471.729C61.2179 471.308 61.8153 470.534 62.1273 470.149C82.1459 444.562 117.478 445.63 136.503 471.729Z" fill="#66F1E2"/>
<path d="M136.503 546.164C130.088 561.084 114.469 570.356 98.408 569.062C92.64 568.59 86.684 566.824 81.5547 563.605C83.8854 558.02 87.736 553.137 92.176 549.428C104.549 539.108 122.66 537.674 136.503 546.164Z" fill="#C9A32B"/>
</g>
</g>
<path d="M40.6512 990.06V407.578C40.6512 221.002 318.264 72.2057 371 45.6377C423.767 72.223 701.35 221.014 701.35 407.578V990.06H40.6512ZM683.323 242.728C653.108 200.084 611.201 157.668 558.763 116.659C470.319 47.4897 383.235 6.46179 379.571 4.74976L371 0.743042L362.43 4.74976C358.766 6.46179 271.682 47.4897 183.238 116.659C130.802 157.668 88.8938 200.084 58.6778 242.728C19.8565 297.518 0.173828 352.98 0.173828 407.578V990.06V1010.3V1030.54H741.828V1010.3V990.06V407.578C741.828 352.98 722.144 297.518 683.323 242.728Z" fill="#05AAAD"/>
<path d="M593.628 842.286H553.15V452.404C553.15 420.699 537.041 370.266 460.3 310.058C424.03 281.6 387.225 261.411 371 253.054C354.781 261.408 317.973 281.599 281.701 310.058C204.96 370.266 188.85 420.699 188.85 452.404V842.286H148.373V452.404C148.373 313.762 353.689 216.194 362.43 212.108L371 208.102L379.57 212.108C388.31 216.194 593.628 313.762 593.628 452.404V842.286Z" fill="#0288A0"/>
<path d="M468.287 557.465V621.265H273.715V469.629C273.715 450.963 282.519 421.429 324.456 386.747C342.406 371.904 360.647 361.007 371 355.3C381.362 361.011 399.599 371.907 417.546 386.747C433.977 400.336 445.306 413.129 453.027 424.793L486.262 402.637C475.449 386.356 460.756 370.483 442.343 355.349C411.487 329.991 380.892 315.289 379.604 314.676L371.002 310.576L362.398 314.676C361.111 315.289 330.515 329.991 299.659 355.349C256.519 390.805 233.715 430.323 233.715 469.629V661.265H468.287H508.287V621.265V557.465H468.287Z" fill="#66F1E2"/>
<path d="M317.073 550.823V478.193L308.914 484.198V558.959L309.222 558.953L308.971 558.866C309.903 558.866 310.785 558.887 311.689 558.899L313.081 558.87C314.618 558.837 316.31 558.917 318.103 559.085C340.058 560.142 353.465 565.077 369.429 571.929V571.934L369.437 571.927C359.401 560.238 333.079 551.905 317.073 550.823Z" fill="#C9A32B"/>
<path d="M323.766 541.922L323.768 545.317L327.106 545.934C327.318 545.973 348.412 549.974 363.879 561.538C359.319 551.022 344.98 543.434 332.148 538.69C332.078 538.673 331.994 538.65 331.924 538.634V538.605V467.2L323.766 473.205V541.922Z" fill="#C9A32B"/>
<path d="M424.913 550.823V478.193L433.071 484.198V558.959L432.763 558.953L433.014 558.866C432.082 558.866 431.201 558.887 430.297 558.899L428.905 558.87C427.367 558.837 425.675 558.917 423.882 559.085C401.927 560.142 388.521 565.077 372.557 571.929V571.934L372.549 571.927C382.585 560.238 408.906 551.905 424.913 550.823Z" fill="#C9A32B"/>
<path d="M418.221 541.983L418.218 545.378L414.881 545.995C414.669 546.034 393.574 550.035 378.107 561.599C382.667 551.083 397.006 543.495 409.838 538.751C409.909 538.734 409.993 538.711 410.062 538.695V538.666V467.26L418.221 473.266V541.983Z" fill="#C9A32B"/>
</svg>
